# xmcd
#
# Track frame offsets:
#	150
#	12120
#	34641
#	59826
#	70785
#	87987
#	104370
#
# Disc length: 1570 seconds
#
# Revision: 1
# Processed by: cddbd v1.5PL3 Copyright (c) Steve Scherf et al.
# Submitted via: CDex 1.50Beta5
#
DISCID=56062007
DTITLE=UI-70(如日) - ...Beginning
DYEAR=1900
DGENRE=
TTITLE0=るりりんべーす
TTITLE1=鳥の詩 with EIRI
TTITLE2=Badend remix
TTITLE3=Mystic Sign
TTITLE4=Barhara
TTITLE5=Badend
TTITLE6=Winter Intuition
EXTD=
EXTT0=
EXTT1=
EXTT2=
EXTT3=
EXTT4=
EXTT5=
EXTT6=
PLAYORDER=
